<?xml version="1.0" encoding="UTF-8"?>
<svg width="32" height="32" viewBox="0 0 32 32" fill="none" xmlns="http://www.w3.org/2000/svg">
  <!-- Background Circle -->
  <circle cx="16" cy="16" r="16" fill="#f0e6e0"/>
  <!-- Leaf Shape -->
  <path d="M16 6C19.5 6 24 8 24 16C24 24 19.5 26 16 26C12.5 26 8 24 8 16C8 8 12.5 6 16 6Z" fill="#c2967d"/>
  <!-- Inner Details -->
  <path d="M16 10C18.5 10 21 11.5 21 16C21 20.5 18.5 22 16 22C13.5 22 11 20.5 11 16C11 11.5 13.5 10 16 10Z" fill="#7d5f4d"/>
  <!-- Center Dot -->
  <circle cx="16" cy="16" r="2" fill="#f0e6e0"/>
</svg>
